<svg xmlns="http://www.w3.org/2000/svg" viewBox="0 0 79.51 58.48"><defs><style>.cls-1{fill:#fff;}.cls-2{fill:#20ce9c;}</style></defs><g id="Layer_2" data-name="Layer 2"><g id="Layer_1-2" data-name="Layer 1"><path class="cls-1" d="M.28,46.12H3.64c.72,0,.81-.1.81-.83V13.17c0-.73-.09-.82-.81-.82H.43c-.19,0-.29,0-.29-.43s.09-.44.29-.44H14.37c.19,0,.28,0,.28.44s-.09.43-.28.43H11.16c-.72,0-.82.09-.82.82v14.3l7.9-7.15c8.36-7.59,7.14-7.78,2.21-8-.19,0-.29-.15-.29-.43s.09-.44.29-.44H32.28c.19,0,.28,0,.28.44s-.09.43-.39.43c-3.35.19-4.11.34-13.31,8.55L14.5,24.81,29.79,45.32c.58.73.72.83,1.43.83h2.69c.19,0,.29,0,.29.43s-.09.43-.29.43h-15c-.18,0-.29,0-.29-.43s.09-.43.29-.43h3.84c.72,0,.81-.1.24-.83L13.7,32.87c-.76-1-3-4-3.14-4.44h-.22V45.32c0,.73.1.83.82.83h3.21c.19,0,.28,0,.28.43s-.09.43-.28.43H.28C.09,47,0,47,0,46.58S.09,46.12.28,46.12Z"/><path class="cls-2" d="M44,0h-2.2V58.48H44Z"/><path class="cls-1" d="M66.33,31.76A25.32,25.32,0,0,1,62,31.33v14.3c0,.73.1.83.82.83h3.75c.19,0,.29,0,.29.43s-.09.43-.29.43H51.91c-.19,0-.29,0-.29-.43s.09-.43.29-.43h3.36c.73,0,.82-.1.82-.83V13.37c0-.72-.09-.82-.82-.82H52.06c-.19,0-.3-.05-.3-.43s.1-.43.3-.43H66.57c8.8,0,12.94,4.66,12.94,10,0,5.77-4.66,10-13.17,10Zm4.75-17.55a5.72,5.72,0,0,0-4.51-1.65H62.82c-.72,0-.82.1-.82.82V30.44a22.28,22.28,0,0,0,4.33.43c2.16,0,3.66-.53,4.51-1.4,1.39-1.4,2.31-3.54,2.31-7.76,0-4-.72-6.15-2.07-7.51Z"/></g></g></svg>